<?xml version="1.0" encoding="UTF-8"?>
<svg id="Layer_1" xmlns="http://www.w3.org/2000/svg" version="1.1" viewBox="0 0 1024 1024">
  <!-- Generator: Adobe Illustrator 29.3.1, SVG Export Plug-In . SVG Version: 2.1.0 Build 151)  -->
  <defs>
    <style>
      .st0 {
        fill: #fecc88;
      }

      .st1 {
        fill: #d9d9d9;
      }

      .st2 {
        fill: #fff;
      }

      .st3 {
        fill: #021c3f;
      }

      .st4 {
        fill: #ce760a;
      }

      .st5 {
        fill: #ef9d2d;
      }
    </style>
  </defs>
  <rect class="st2" width="1024" height="1024"/>
  <rect class="st3" width="1024" height="1024"/>
  <circle class="st1" cx="511.5" cy="346.5" r="326.5"/>
  <circle class="st4" cx="512" cy="288" r="219"/>
  <rect class="st4" x="402" y="368" width="219" height="239" rx="47" ry="47"/>
  <rect class="st5" x="432" y="349" width="159" height="258" rx="47" ry="47"/>
  <circle class="st5" cx="512" cy="288" r="169"/>
  <circle class="st0" cx="510.5" cy="278.5" r="126.5"/>
  <circle class="st2" cx="512" cy="278" r="88"/>
  <path class="st3" d="M500,389.5c0-6.35,5.15-11.5,11.5-11.5s11.5,5.15,11.5,11.5v206c0,6.35-5.15,11.5-11.5,11.5s-11.5-5.15-11.5-11.5v-206Z"/>
  <path class="st3" d="M520.53,470.44l-49.5-98-16.07,8.12,49.5,98,16.07-8.12ZM550.87,372.64l-46.5,98,16.26,7.72,46.5-98-16.26-7.72ZM470.46,381.53c9.15-13.57,16.93-23.18,23.87-29.35,6.92-6.14,12.17-8.14,16.44-8.15,4.27-.01,9.56,1.94,16.55,8.08,7.02,6.16,14.92,15.8,24.23,29.46l14.87-10.14c-9.6-14.08-18.51-25.2-27.23-32.85-8.75-7.68-18.13-12.58-28.48-12.55-10.35.03-19.68,5-28.34,12.69-8.63,7.67-17.41,18.76-26.84,32.74l14.92,10.07ZM512.5,474.5l-8.03,4.06,8.29,16.4,7.88-16.6-8.13-3.86ZM559,376.5l8.13,3.86,2.21-4.66-2.91-4.26-7.44,5.07ZM463,376.5l-7.46-5.03-2.95,4.38,2.38,4.71,8.03-4.06Z"/>
  <rect class="st3" x="436" y="552" width="150" height="12" rx="4" ry="4"/>
  <rect class="st3" x="436" y="596" width="150" height="12" rx="4" ry="4"/>
  <rect class="st3" x="445" y="574" width="132" height="12" rx="4" ry="4"/>
  <rect class="st3" x="445" y="618" width="132" height="12" rx="4" ry="4"/>
  <rect class="st3" x="461" y="640" width="101" height="12" rx="4" ry="4"/>
  <path class="st2" d="M895.02,874.6v-10.8h102v10.8l-22,2c-4.27.53-6.8,1.6-7.6,3.2s-1.2,7.07-1.2,16.4v90.8h-9.6c-5.07-7.73-11.07-13.87-18-18.4-7.73,6.93-16.8,12.4-27.2,16.4-10.13,4-21.87,6-35.2,6-21.33,0-39.47-5.2-54.4-15.6-14.93-10.67-26.4-25.47-34.4-44.4-7.73-18.93-11.6-40.93-11.6-66v-30c0-24.53,3.87-46.13,11.6-64.8,8-18.67,19.6-33.2,34.8-43.6,15.47-10.4,34.13-15.6,56-15.6s38.4,4,52,12c13.87,7.73,23.73,18,29.6,30.8,6.13,12.8,8.13,26.53,6,41.2l-34.4,8.4c2.93-25.6-.27-45.2-9.6-58.8-9.33-13.87-23.87-20.8-43.6-20.8-21.33,0-37.47,7.47-48.4,22.4-10.67,14.93-16,38.67-16,71.2v66.8c0,32.53,5.47,56.4,16.4,71.6,11.2,14.93,27.6,22.4,49.2,22.4,10.93,0,21.07-2,30.4-6,9.6-4,17.6-10.4,24-19.2v-56.8c0-9.33-.4-14.8-1.2-16.4-.8-1.87-3.33-2.93-7.6-3.2l-30-2ZM462.65,725.8v-10.8h96.4v10.8l-22,2c-4.27.53-6.8,1.6-7.6,3.2s-1.2,7.07-1.2,16.4v207.2c0,9.33.4,14.8,1.2,16.4s3.33,2.67,7.6,3.2l22,2.4v10.4h-96.4v-10.4l22-2.4c4.27-.53,6.8-1.6,7.6-3.2.8-1.6,1.2-7.07,1.2-16.4v-207.2c0-9.33-.4-14.8-1.2-16.4-.8-1.6-3.33-2.67-7.6-3.2l-22-2ZM57.22,715h212.8v65.2h-10.4l-11.6-42c-.8-3.2-1.73-5.47-2.8-6.8-.8-1.6-2.53-2.53-5.2-2.8-2.67-.53-7.2-.8-13.6-.8h-45.2v226.8c0,9.33.4,14.8,1.2,16.4s3.33,2.67,7.6,3.2l22,2.4v10.4h-96.4v-10.4l22-2.4c4.27-.53,6.8-1.6,7.6-3.2s1.2-7.07,1.2-16.4v-226.8h-45.6c-6.13,0-10.67.27-13.6.8-2.67.27-4.53,1.2-5.6,2.8-.8,1.33-1.6,3.6-2.4,6.8l-11.6,42h-10.4v-65.2Z"/>
</svg>